<?xml version="1.0" encoding="UTF-8"?>
<svg id="Layer_1" xmlns="http://www.w3.org/2000/svg" version="1.1" viewBox="0 0 340 340">
  <!-- Generator: Adobe Illustrator 29.5.0, SVG Export Plug-In . SVG Version: 2.1.0 Build 137)  -->
  <defs>
    <style>
      .st0 {
        fill: #fafafa;
      }

      .st1 {
        fill: #ca8922;
        opacity: .48;
      }

      .st2 {
        fill: #f6f6f6;
      }

      .st3, .st4 {
        fill: #2d5f7a;
      }

      .st5 {
        fill: #fff;
        stroke: #fff;
        stroke-miterlimit: 10;
        stroke-width: 21px;
      }

      .st6 {
        fill: #207049;
      }

      .st7 {
        fill: #0f5763;
      }

      .st8 {
        fill: #e3a11b;
      }

      .st9 {
        fill: #123f4c;
      }

      .st10 {
        fill: #3b9546;
      }

      .st4 {
        opacity: .09;
      }
    </style>
  </defs>
  <path class="st5" d="M283.46,316.65c0,1.41-1.16,2.56-2.57,2.48H62.73c-1.42.08-2.57-1.07-2.57-2.48s1.11-2.52,2.5-2.77c.05,0,.09-.01.14-.01l1.25-7.5h-.55v-51.69h5.74l-1.82-10.93c-1.09-.21-2.11-.51-3.06-.91-2.08-.86-3.83-1.99-5.26-3.39l4.5-4.95c.83.72,1.69,1.3,2.57,1.77l-1.28-7.63c-.98-.58-1.77-1.2-2.37-1.87-1.43-1.59-2.14-3.57-2.14-5.95,0-1.93.52-3.61,1.56-5.04.2-.28.43-.54.67-.8l-1.91-11.46c-.05-.29-.28-.51-.57-.57-1.19-.23-2.09-1.28-2.09-2.52,0-.7.29-1.35.76-1.81.44-.44,1.05-.73,1.71-.75.07,0,.13-.01.2-.04l12.41-4.45h-1.43c-.5,0-.84-.51-.65-.97,3.88-9.46,14.39-35.23,14.82-37.37-.13-.05-.27-.09-.43-.11-.89.12-2.57.47-2.76.51-.01,0-.02,0-.02,0l13.91-39.61c.21-.6-.43-1.16-.99-.86-4.19,2.27-13.1,11.36-13.64,11.36s18.45-40.39,22-47.9c.26-.55-.26-1.15-.84-.97h-.02c-.08.03-.15.06-.22.12-2.91,2.12-5.71,4.69-6.64,5.57-.03.02-.05.05-.08.08-.29.38-.47.64-.51.7,0,0,16.35-57.19,22.47-63.92.23-.26,1.14-.04,1.37.22.04.05-.06.26,0,.26.08,0,.06-.39.08-.31,2.03,8.84,1.39,27.9,2.53,37.1,0,.02,0,.04,0,.06,1.42,10.5,3.13,17.78,4.47,22.4.2.68-.63,1.2-1.15.71-.88-.82-1.71-1.36-2.39-1.7-.6-.3-1.23.33-.95.94l9.59,20.38c.21.44.79.54,1.13.2l34.5-34.29c1.11-1.11,2.59-1.64,4.05-1.61,1.47-.02,2.94.51,4.06,1.61l34.46,34.26c.35.34.92.24,1.13-.2l9.59-20.35c.28-.6-.36-1.23-.95-.93-.68.35-1.51.88-2.39,1.7-.52.49-1.35-.02-1.15-.71,1.34-4.62,3.05-11.9,4.47-22.4,0-.01,0-.02,0-.03,1.12-9.21.11-29.91,2.53-37.13.02-.07,0,.3.08.29.06,0-.03-.2,0-.25.23-.26,1.12-.47,1.37-.22,9.53,9.43,22.47,63.92,22.47,63.92-.04-.06-.22-.32-.51-.7-.02-.03-.05-.06-.08-.08-.94-.88-3.74-3.44-6.65-5.57-.06-.05-.14-.09-.22-.12h-.02c-.58-.18-1.09.42-.84.97,3.54,7.52,22.55,47.9,21.99,47.9s-9.44-9.09-13.64-11.36c-.56-.3-1.2.26-.99.85l13.92,39.61s0,0-.02,0c-.2-.04-1.88-.39-2.77-.51-.16.02-.31.05-.44.11.3,1.42,5.03,13.29,9.31,23.86v-.13s.66,1.94.58,2.04h0c1.91,4.59,3.61,8.76,4.74,11.62.18.46-.16.96-.66.96l10.11,4.68c1.4,0,2.56,1.15,2.56,2.55,0,.15-1.68,5.59-4.35,14.09.09.06.18.11.26.18,2.36,1.77,3.54,4.36,3.54,7.78s-1.12,6.23-3.36,8.11c-1.67,1.4-3.78,2.27-6.31,2.63-2.01,6.37-4.18,13.26-6.4,20.28,1.68.31,3.28.77,4.8,1.38,3.09,1.23,5.81,2.87,8.14,4.9l-7.43,7.72c-1.83-1.33-3.49-2.3-4.98-2.9-1.14-.46-2.4-.74-3.78-.84-1.29,4.06-2.57,8.11-3.82,12.05h20.01v25.92c-1.91,1.32-4.01,2.43-6.31,3.33-.98.39.45,8.62.45,8.62h6.87c.13,0,.25.04.36.1.58.33,2.4,1.5,2.4,2.68Z"/>
  <g>
    <g>
      <path class="st10" d="M137.56,137.45s-.09.15-.18.43c-1.37,4.45-9.41,42.06-12.24,55.35-.61,2.9-.98,4.64-.98,4.64l-.89-.02v-4.62h-50.79l4.9-12.58s0-.01.01-.01l1.89-4.87s0-.01,0-.02l7.97-20.46c-.1-.19-.26-.32-.46-.41-.13-.05-.27-.09-.43-.11-1.05-.14-2.57.44-2.74.51-.01,0-.02,0-.02,0l14.3-40.98c-2.94,0-14.41,11.87-15.01,11.87s22.42-49.1,22.42-49.1c-.51,0-1.02.09-1.53.26-2.87.94-5.61,4.19-6.74,5.68-.36.46-.56.75-.56.75l23.64-67.65c.01,1.43.04,2.83.06,4.21.29,15.16,1.32,27.29,2.59,36.79,0,.02,0,.04,0,.06,1.84,13.7,4.18,21.92,5.54,25.89-2.88-4.61-6.27-5.08-6.27-5.08l10.67,22.81,2.62,5.59.9,1.93c-.33-.47-.68-.93-1.07-1.37h-.01c-.05-.08-.11-.15-.18-.21-.26-.3-.54-.6-.84-.88-1.1-1.09-2.33-2.06-3.57-2.92-4.09-2.83-8.32-4.39-8.52-4.46.07.18,1.66,4.01,3.78,9.19.74,1.81,1.55,3.78,2.39,5.83.28.69.57,1.39.85,2.1.36.89.73,1.8,1.1,2.7.12.31.25.63.38.94.75,1.85,1.49,3.67,2.19,5.42,2.83,7.05,5.05,12.77,4.82,12.77Z"/>
      <path class="st10" d="M103.01,67.52l.66-.54c-.23.25-.45.43-.66.54Z"/>
      <path class="st6" d="M135.17,106.97h-.01c-.06-.08-.12-.14-.18-.2-.28-.3-.56-.6-.83-.88-1.18-1.25-2.25-2.33-3.22-3.28-10.41-10.19-9.35-4.36-9.35-4.36-4.87,8.01-7.4,6.19-7.4,6.19,2.05,2.99,3.74,6.3,5.12,9.81.78,1.99,1.47,4.04,2.06,6.15.61,2.13,1.12,4.3,1.55,6.52.13.65.25,1.3.37,1.97.11.63.22,1.26.31,1.9.14.89.26,1.78.38,2.68h0c.57,4.49.86,9.02.95,13.42,0,.19.01.37.01.57.17,10.34-.74,19.98-1.65,26.85-.85,6.36-1.7,10.36-1.7,10.36l-39.47,8.57h-10.44c3.47-8.52,14.67-36.12,15.13-38.34.02-.1.02-.15,0-.15-.1,0-.25.01-.43.04-.89.12-2.55.47-2.74.51-.01,0-.02,0-.02,0,6.13-13.87,13.63-24.54,23.07-30.68,0,0-.71-8.72-3.75-12.98-3.04-4.26-12.38,5.48-12.38,5.48,0,0-.26,1.16,0-.61,1.21-8.01,23.54-28,23.54-28-6.19-6.19-3.75-14.2-3.75-14.2-1.53-.2-4.07,1.25-6.54,3.05-2.97,2.17-5.85,4.83-6.74,5.68-.19.17-.29.27-.29.27,2.44-10.45,14.89-14.68,14.89-14.68v-8.11l-7.97,6.46c5.05-5.4,15.46-42.84,16.51-46.63.05-.2.08-.31.08-.31.41,15.75,1.39,27.9,2.51,37.1,0,.02,0,.04,0,.06,2.16,17.77,4.86,24.5,4.98,24.8-5.57-8.09-6.89-4.95-6.89-4.95l11.52,24.1,2.66,5.55.13.27Z"/>
    </g>
    <path class="st10" d="M85.6,174.12l-8.19,14.28h13.24c3.19-6.36-4.71-5.45-.09-8.46,0,0-.4-4.93-2.12-7.33-1.72-2.41-6.99,3.09-6.99,3.09,0,0-.15.66,0-.34.68-4.53,13.29-15.81,13.29-15.81-3.5-3.5-2.12-8.02-2.12-8.02-.86-.12-2.3.71-3.69,1.73.29-.09.57-.15.86-.15,0,0-13.01,27.73-12.66,27.73s6.82-6.7,8.48-6.7Z"/>
    <g>
      <path class="st10" d="M270.93,193.24h-50.4v4.61l-1.28.02s-.37-1.74-.98-4.64c-2.95-13.85-11.55-54.07-12.38-55.73h0s-.03-.05-.04-.05c-.23,0,1.95-5.6,4.74-12.56.73-1.82,1.5-3.73,2.28-5.66.11-.26.22-.53.33-.79.4-.99.81-1.99,1.2-2.98.24-.58.47-1.16.71-1.73.87-2.12,1.71-4.18,2.48-6.05,2.12-5.17,3.7-8.98,3.77-9.17-.2.07-4.42,1.62-8.5,4.44-1.27.87-2.53,1.87-3.64,2.98-.32.31-.63.64-.93.98-.01.02-.03.04-.04.05t-.01.01c-.39.44-.74.89-1.07,1.37l.81-1.74,2.73-5.81,10.66-22.78s-3.39.47-6.28,5.08c1.36-3.98,3.7-12.19,5.54-25.89,0-.01,0-.02,0-.03,1.27-9.5,2.3-21.65,2.59-36.84h0c.03-1.37.05-2.77.06-4.19l23.64,67.65s-.2-.29-.56-.75c-1.13-1.49-3.88-4.74-6.74-5.68-.51-.17-1.02-.26-1.53-.26,0,0,23.03,49.1,22.42,49.1s-12.07-11.87-15.01-11.87l14.31,40.98s0,0-.02,0c-.17-.06-1.7-.65-2.75-.51-.16.02-.3.05-.43.11-.2.09-.36.22-.46.41l5.63,14.46s0,0,0,.01l4.01,10.32s0,0,0,0l5.12,13.14Z"/>
      <path class="st10" d="M240.4,67.52c-.21-.11-.43-.29-.66-.54l.66.54Z"/>
      <path class="st6" d="M271.74,193.24h-10.44l-39.47-8.57s-.61-2.85-1.3-7.57c-1.02-6.91-2.24-17.84-2.04-29.69,0-.27,0-.54.02-.81.09-4.23.37-8.58.91-12.89.13-1.06.28-2.12.44-3.18.16-1,.33-2,.51-2.99.05-.23.09-.46.13-.68,0-.03.01-.06.02-.09.41-2.09.89-4.15,1.47-6.16.61-2.19,1.32-4.33,2.13-6.4,1.38-3.5,3.06-6.8,5.11-9.78,0,0-2.53,1.82-7.4-6.19,0,0,1.05-5.81-9.33,4.34-.99.96-2.08,2.07-3.28,3.35-.3.32-.61.64-.92.98-.02.01-.04.03-.05.05t-.01.01l.04-.08,2.76-5.77,11.5-24.07s-1.32-3.14-6.89,4.95c.12-.3,2.82-7.04,4.99-24.8,0-.01,0-.02,0-.03,1.12-9.21,2.1-21.37,2.51-37.13,0,0,.03.1.08.29h0c1.02,3.7,11.45,41.23,16.51,46.65l-7.96-6.46v8.11s12.45,4.23,14.89,14.68c0,0-.1-.1-.29-.27-.89-.85-3.77-3.51-6.74-5.68-2.47-1.8-5.01-3.26-6.54-3.05,0,0,2.43,8.01-3.75,14.2,0,0,22.32,19.99,23.54,28,.27,1.77,0,.61,0,.61,0,0-9.33-9.74-12.38-5.48-3.04,4.26-3.75,12.98-3.75,12.98,9.44,6.15,16.94,16.82,23.07,30.68,0,0,0,0-.02,0-.19-.04-1.87-.39-2.75-.51-.18-.03-.33-.04-.43-.04-.02,0-.02.05,0,.15.29,1.42,5,13.29,9.25,23.86.02.03.03.06.04.1.26.66.53,1.3.78,1.94t0,.01c2.06,5.12,3.94,9.73,5.04,12.43Z"/>
    </g>
    <path class="st10" d="M258.21,174.12l8.19,14.28h-13.24c-3.19-6.36,4.71-5.45.09-8.46,0,0,.4-4.93,2.12-7.33,1.72-2.41,6.99,3.09,6.99,3.09,0,0,.15.66,0-.34-.68-4.53-13.29-15.81-13.29-15.81,3.5-3.5,2.12-8.02,2.12-8.02.86-.12,2.3.71,3.69,1.73-.29-.09-.57-.15-.86-.15,0,0,13.01,27.73,12.66,27.73s-6.82-6.7-8.48-6.7Z"/>
    <rect class="st3" x="60.17" y="314.08" width="223.29" height="5.13" rx="2.39" ry="2.39"/>
    <g>
      <path class="st3" d="M114.49,200.29c0,.7-.29,1.35-.75,1.81-.46.47-1.11.75-1.81.75h-50.22c-1.41,0-2.56-1.16-2.56-2.57,0-.7.29-1.35.75-1.81.46-.47,1.1-.75,1.81-.75h50.22c1.42,0,2.57,1.15,2.57,2.56Z"/>
      <path class="st3" d="M283.46,200.29c0,.7-.29,1.35-.75,1.81-.47.47-1.11.75-1.81.75h-50.22c-1.41,0-2.56-1.16-2.56-2.57,0-.7.29-1.35.75-1.81.46-.47,1.1-.75,1.81-.75h50.22c1.41,0,2.57,1.15,2.57,2.56Z"/>
    </g>
    <g>
      <path class="st7" d="M175.84,73.97l-69.59,69.59c-2.16,2.16-5.8,4.97-5.8,4.97-2.16-2.16-4.5-10.95-2.34-13.11l69.59-69.59c2.16-2.16,5.69-2.16,7.84,0l.3.3c2.16,2.16,2.16,5.69,0,7.84Z"/>
      <path class="st7" d="M167.61,73.97l69.59,69.59c2.16,2.16,5.8,4.97,5.8,4.97,2.16-2.16,4.5-10.95,2.34-13.11l-69.59-69.59c-2.16-2.16-5.69-2.16-7.84,0l-.3.3c-2.16,2.16-2.16,5.69,0,7.84Z"/>
    </g>
    <g>
      <polygon class="st9" points="104.96 150.56 126.02 147.28 127.45 126.68 104.96 150.56"/>
      <polygon class="st9" points="238.71 150.56 217.65 147.28 216.22 126.68 238.71 150.56"/>
      <path class="st8" d="M220.53,128.07v73.32c0,1.65-1.35,3-2.99,3h-91.27c-1.65,0-3-1.35-3-3v-73.32c0-.5.76-1.77,2.09-3.61,1.19-1.64,2.84-3.74,4.81-6.13,9.67-11.77,27.11-30.78,36.17-39.19,1.35-1.26,2.52-2.28,3.44-3,1.02-.8,1.75-1.24,2.12-1.24,0,0,.54.54,1.5,1.51h0c.81.83,1.91,1.96,3.25,3.33,8.52,8.71,26.44,27.21,36.55,38.7,2.39,2.71,4.34,5.03,5.62,6.74.78,1.03,1.31,1.83,1.56,2.37.1.22.15.39.15.52Z"/>
      <polygon class="st1" points="220.53 148.07 171.9 112.97 123.27 148.07 123.27 121.43 171.31 73.47 220.53 121.43 220.53 148.07"/>
      <g>
        <rect class="st0" x="85.18" y="106.11" width="105.5" height="11.09" rx="5.17" ry="5.17" transform="translate(-38.55 130.24) rotate(-45)"/>
        <rect class="st0" x="199.65" y="58.9" width="11.09" height="105.5" rx="5.17" ry="5.17" transform="translate(-18.85 177.8) rotate(-45)"/>
      </g>
    </g>
    <g>
      <rect class="st2" x="144.06" y="142.3" width="24.42" height="24.42"/>
      <rect class="st2" x="175.05" y="142.3" width="24.42" height="24.42"/>
      <rect class="st2" x="144.06" y="173.3" width="24.42" height="24.42"/>
      <rect class="st2" x="175.05" y="173.3" width="24.42" height="24.42"/>
      <polygon class="st4" points="183.54 142.3 159.25 166.77 168.47 166.52 144.06 197.72 199.05 142.17 183.54 142.3"/>
      <polygon class="st4" points="199.57 170.19 199.57 154.63 184.19 170.12 193.41 169.87 175.71 197.72 199.57 170.19"/>
    </g>
  </g>
  <g>
    <path class="st8" d="M83.87,215.56l-4.05,4.77c-2.08-1.66-4.29-2.5-6.64-2.5-1.1,0-1.93.19-2.5.58-.56.39-.85.94-.85,1.65,0,.54.16.97.47,1.31.31.34.83.66,1.56.96.73.3,1.91.71,3.54,1.25,3.27,1.04,5.62,2.35,7.06,3.92,1.44,1.58,2.16,3.73,2.16,6.46,0,1.99-.53,3.75-1.58,5.28-1.05,1.53-2.56,2.73-4.52,3.59s-4.28,1.29-6.95,1.29-5.14-.43-7.22-1.29c-2.08-.86-3.83-1.99-5.26-3.39l4.5-4.95c2.35,2.02,4.89,3.03,7.62,3.03,1.28,0,2.24-.26,2.9-.78.65-.52.98-1.2.98-2.03,0-.62-.14-1.14-.42-1.56-.28-.42-.78-.8-1.49-1.16-.71-.36-1.75-.74-3.12-1.16-3.59-1.13-6.1-2.49-7.53-4.08-1.43-1.59-2.14-3.57-2.14-5.95,0-1.93.52-3.61,1.56-5.04,1.04-1.43,2.47-2.52,4.3-3.3,1.83-.77,3.88-1.16,6.17-1.16,4.72,0,8.54,1.41,11.45,4.23Z"/>
    <path class="st8" d="M108.32,214.87c2.36,1.77,3.54,4.36,3.54,7.78s-1.12,6.24-3.36,8.11c-2.24,1.87-5.27,2.81-9.07,2.81h-3.03v9.67h-9.18v-31.01h11.19c4.25,0,7.55.88,9.92,2.65ZM102.5,222.65c0-2.7-1.41-4.06-4.23-4.06h-1.87v8.51h2.14c2.64,0,3.97-1.49,3.97-4.46Z"/>
    <path class="st8" d="M125.32,232.19h-1.69v11.05h-9.18v-31.01h11.36c4.49,0,7.83.79,10.03,2.38,2.2,1.59,3.3,4.08,3.3,7.46,0,1.93-.43,3.54-1.29,4.81-.86,1.28-2.26,2.48-4.19,3.61l7.58,12.74h-10.16l-5.75-11.05ZM123.62,226.04h2.41c1.25,0,2.18-.33,2.81-.98.62-.65.94-1.65.94-2.99,0-2.38-1.4-3.56-4.19-3.56h-1.96v7.53Z"/>
    <path class="st8" d="M167.11,232.72c0,2.17-.48,4.12-1.43,5.84s-2.39,3.08-4.32,4.08c-1.93,1-4.31,1.49-7.13,1.49-4.25,0-7.46-1.03-9.62-3.08-2.17-2.05-3.25-4.83-3.25-8.33v-20.5h9.18v20.23c0,1.75.29,3.04.87,3.85.58.82,1.52,1.23,2.83,1.23s2.25-.41,2.83-1.23c.58-.82.87-2.1.87-3.85v-20.23h9.18v20.5Z"/>
    <path class="st8" d="M194.25,214.99l-4.23,4.99c-.89-.65-1.76-1.16-2.61-1.52s-1.75-.53-2.7-.53c-1.81,0-3.22.82-4.21,2.45-1,1.63-1.49,4.06-1.49,7.26s.5,5.61,1.51,7.2,2.45,2.38,4.32,2.38c1.01,0,1.95-.21,2.83-.62.88-.42,1.85-1.04,2.92-1.87l4.01,5.08c-1.25,1.25-2.76,2.28-4.52,3.1-1.77.82-3.66,1.23-5.68,1.23-3.06,0-5.7-.63-7.93-1.89-2.23-1.26-3.95-3.13-5.17-5.59-1.22-2.47-1.83-5.47-1.83-9s.62-6.31,1.87-8.76c1.25-2.45,2.99-4.32,5.21-5.62,2.23-1.29,4.8-1.94,7.71-1.94,3.83,0,7.16,1.22,9.98,3.65Z"/>
    <path class="st8" d="M216.89,212.22l-.94,6.37h-10.25v5.79h9v6.19h-9v6.24h10.96v6.42h-20.14v-31.01h20.36Z"/>
    <path class="st8" d="M254.81,232.72c0,2.17-.48,4.12-1.43,5.84-.95,1.72-2.39,3.08-4.32,4.08-1.93,1-4.31,1.49-7.13,1.49-4.25,0-7.46-1.03-9.62-3.08-2.17-2.05-3.25-4.83-3.25-8.33v-20.5h9.18v20.23c0,1.75.29,3.04.87,3.85.58.82,1.52,1.23,2.83,1.23s2.25-.41,2.83-1.23c.58-.82.87-2.1.87-3.85v-20.23h9.18v20.5Z"/>
    <path class="st8" d="M279.29,214.87c2.36,1.77,3.54,4.36,3.54,7.78s-1.12,6.24-3.36,8.11c-2.24,1.87-5.27,2.81-9.07,2.81h-3.03v9.67h-9.18v-31.01h11.18c4.25,0,7.55.88,9.92,2.65ZM273.48,222.65c0-2.7-1.41-4.06-4.23-4.06h-1.87v8.51h2.14c2.64,0,3.97-1.49,3.97-4.46Z"/>
    <path class="st3" d="M78.8,254.67v39.96h19.53l-1.56,11.73h-33.27v-51.69h15.3Z"/>
    <path class="st3" d="M117.57,254.67v51.69h-15.3v-51.69h15.3Z"/>
    <path class="st3" d="M165.62,254.67l-13.07,51.69h-19.76l-13.89-51.69h16.12l7.87,41.07,7.06-41.07h15.67Z"/>
    <path class="st3" d="M182.26,254.67v51.69h-15.3v-51.69h15.3Z"/>
    <path class="st3" d="M230.6,306.37h-19.16l-11.29-37.73.22,1.63c.54,3.62.98,6.92,1.3,9.92.32,3,.48,6.38.48,10.14v16.04h-13.52v-51.69h18.79l11.73,37.88-.22-1.56c-.59-3.42-1.05-6.6-1.37-9.54-.32-2.95-.48-6.35-.48-10.21v-16.56h13.52v51.69Z"/>
    <path class="st3" d="M271.56,255.05c3.09,1.24,5.8,2.87,8.13,4.9l-7.43,7.72c-1.83-1.34-3.49-2.3-4.98-2.9-1.49-.59-3.17-.89-5.05-.89-3.62,0-6.39,1.37-8.32,4.12-1.93,2.75-2.9,6.92-2.9,12.51,0,4.21.3,7.51.89,9.92.59,2.4,1.52,4.1,2.79,5.09,1.26.99,2.93,1.49,5.01,1.49,1.83,0,3.59-.42,5.27-1.26v-9.43h-5.2l-1.41-10.32h21.32v25.92c-2.72,1.88-5.84,3.34-9.36,4.38s-6.91,1.56-10.17,1.56c-8.47,0-14.73-2.31-18.79-6.94-4.06-4.63-6.09-11.45-6.09-20.46,0-5.69,1.11-10.59,3.34-14.71,2.23-4.11,5.32-7.23,9.28-9.36,3.96-2.13,8.44-3.19,13.44-3.19,3.71,0,7.12.62,10.21,1.86Z"/>
  </g>
</svg>